# Exported from Wings 3D 0.98.34
mtllib crackattackcubehires.mtl
o cube1
#38 vertices, 72 faces
v -0.89900002 0.90100000 -0.90100000
v -0.89900002 -0.89900002 0.89900002
v 0.90100000 -0.89900002 -0.90100000
v 0.90100000 -0.89900002 0.89900002
v 0.90100000 0.90100000 -0.90100000
v -0.89900002 0.90100000 0.89900002
v -0.89900002 -0.89900002 -0.90100000
v 0.90100000 0.90100000 0.89900002
v 1.0000000e-3 1.0000000e-3 -0.90099996
v 1.0000000e-3 1.0000000e-3 0.89899999
v 1.0000000e-3 0.90099996 -1.0000000e-3
v 0.90099996 1.0000000e-3 -1.0000000e-3
v -0.89899999 1.0000000e-3 -1.0000000e-3
v 1.0000000e-3 -0.89899999 -1.0000000e-3
v -0.11063100 -0.98582399 -1.0000000e-3
v 1.0000000e-3 0.98782396 0.11063100
v 1.0000000e-3 0.11263100 -0.98782396
v 0.11263100 1.0000000e-3 0.98582399
v 0.98782396 -0.11063100 -1.0000000e-3
v -0.98582399 0.11263100 -1.0000000e-3
v 0.11263100 -0.98582399 -1.0000000e-3
v -0.11063100 0.98782396 -1.0000000e-3
v -0.11063100 1.0000000e-3 -0.98782396
v -0.11063100 1.0000000e-3 0.98582399
v 0.98782396 0.11263100 -1.0000000e-3
v -0.98582399 -0.11063100 -1.0000000e-3
v 1.0000000e-3 -0.98582399 -0.11263100
v 0.11263100 0.98782396 -1.0000000e-3
v 0.11263100 1.0000000e-3 -0.98782396
v 1.0000000e-3 0.11263100 0.98582399
v 0.98782396 1.0000000e-3 0.11063100
v -0.98582399 1.0000000e-3 0.11063100
v 1.0000000e-3 -0.98582399 0.11063100
v 1.0000000e-3 0.98782396 -0.11263100
v 1.0000000e-3 -0.11063100 -0.98782396
v 1.0000000e-3 -0.11063100 0.98582399
v 0.98782396 1.0000000e-3 -0.11263100
v -0.98582399 1.0000000e-3 -0.11263100
vn -0.57735026 0.57735027 -0.57735027
vn -0.57735027 -0.57735027 0.57735027
vn 0.57735027 -0.57735026 -0.57735027
vn 0.57735027 -0.57735027 0.57735027
vn 0.57735027 0.57735027 -0.57735027
vn -0.57735027 0.57735027 0.57735027
vn -0.57735027 -0.57735027 -0.57735027
vn 0.57735027 0.57735027 0.57735026
vn 1.9553075e-9 1.9553072e-9 -1.00000000
vn 1.9553075e-9 1.9553074e-9 1.00000000
vn 1.9553072e-9 1.00000000 -1.9553075e-9
vn 1.00000000 1.9553075e-9 -1.9553072e-9
vn -1.00000000 1.9553074e-9 -1.9553074e-9
vn 1.9553074e-9 -1.00000000 -1.9553074e-9
vn 0.37179757 -0.92831383 -3.3507681e-9
vn 3.3507679e-9 0.92831383 -0.37179758
vn 3.3507680e-9 -0.37179758 -0.92831383
vn -0.37179757 3.3507679e-9 0.92831383
vn 0.92831383 0.37179758 -3.3507679e-9
vn -0.92831383 -0.37179757 -3.3507679e-9
vn -0.37179757 -0.92831383 -3.3507680e-9
vn 0.37179758 0.92831383 -3.3507681e-9
vn 0.37179758 3.3507679e-9 -0.92831383
vn 0.37179757 3.3507679e-9 0.92831383
vn 0.92831383 -0.37179758 -3.3507679e-9
vn -0.92831383 0.37179757 -3.3507679e-9
vn 3.3507679e-9 -0.92831383 0.37179757
vn -0.37179758 0.92831383 -3.3507680e-9
vn -0.37179758 3.3507679e-9 -0.92831383
vn 3.3507680e-9 -0.37179757 0.92831383
vn 0.92831383 3.3507681e-9 -0.37179758
vn -0.92831383 3.3507681e-9 -0.37179757
vn 3.3507679e-9 -0.92831383 -0.37179757
vn 3.3507679e-9 0.92831383 0.37179758
vn 3.3507681e-9 0.37179758 -0.92831383
vn 3.3507681e-9 0.37179757 0.92831383
vn 0.92831383 3.3507680e-9 0.37179758
vn -0.92831383 3.3507680e-9 0.37179757
g cube1_default2
usemtl default2
f 1//1 17//17 9//9
f 1//1 20//20 6//6
f 1//1 22//22 11//11
f 1//1 23//23 7//7
f 1//1 34//34 5//5
f 1//1 38//38 13//13
f 2//2 15//15 14//14
f 2//2 24//24 6//6
f 2//2 26//26 7//7
f 2//2 32//32 13//13
f 2//2 33//33 4//4
f 2//2 36//36 10//10
f 3//3 19//19 4//4
f 3//3 21//21 14//14
f 3//3 27//27 7//7
f 3//3 29//29 5//5
f 3//3 35//35 9//9
f 3//3 37//37 12//12
f 4//4 18//18 10//10
f 4//4 19//19 12//12
f 4//4 21//21 3//3
f 4//4 31//31 8//8
f 4//4 33//33 14//14
f 4//4 36//36 2//2
f 5//5 17//17 1//1
f 5//5 25//25 12//12
f 5//5 28//28 8//8
f 5//5 29//29 9//9
f 5//5 34//34 11//11
f 5//5 37//37 3//3
f 6//6 16//16 11//11
f 6//6 20//20 13//13
f 6//6 22//22 1//1
f 6//6 24//24 10//10
f 6//6 30//30 8//8
f 6//6 32//32 2//2
f 7//7 15//15 2//2
f 7//7 23//23 9//9
f 7//7 26//26 13//13
f 7//7 27//27 14//14
f 7//7 35//35 3//3
f 7//7 38//38 1//1
f 8//8 16//16 6//6
f 8//8 18//18 4//4
f 8//8 25//25 5//5
f 8//8 28//28 11//11
f 8//8 30//30 10//10
f 8//8 31//31 12//12
f 9//9 17//17 5//5
f 9//9 23//23 1//1
f 9//9 29//29 3//3
f 9//9 35//35 7//7
f 10//10 18//18 8//8
f 10//10 24//24 2//2
f 10//10 30//30 6//6
f 10//10 36//36 4//4
f 11//11 16//16 8//8
f 11//11 22//22 6//6
f 11//11 28//28 5//5
f 11//11 34//34 1//1
f 12//12 19//19 3//3
f 12//12 25//25 8//8
f 12//12 31//31 4//4
f 12//12 37//37 5//5
f 13//13 20//20 1//1
f 13//13 26//26 2//2
f 13//13 32//32 6//6
f 13//13 38//38 7//7
f 14//14 15//15 7//7
f 14//14 21//21 4//4
f 14//14 27//27 3//3
f 14//14 33//33 2//2
