/* XPM */
static char * crack_attack_cubeicon2_xpm[] = {
"48 48 45 1",
" 	g None",
".	g #333333",
"+	g #000000",
"@	g #000033",
"#	g #003333",
"$	g #003300",
"%	g #000066",
"&	g #330033",
"*	g #333300",
"=	g #660066",
"-	g #330066",
";	g #660033",
">	g #330000",
",	g #006600",
"'	g #339900",
")	g #009900",
"!	g #663366",
"~	g #990066",
"{	g #993399",
"]	g #990099",
"^	g #663399",
"/	g #660099",
"(	g #336600",
"_	g #00CC33",
":	g #33CC33",
"<	g #33FF33",
"[	g #009933",
"}	g #CC33CC",
"|	g #CC66CC",
"1	g #CC3399",
"2	g #00CC00",
"3	g #FF66FF",
"4	g #FF66CC",
"5	g #CC33FF",
"6	g #9933CC",
"7	g #CC66FF",
"8	g #FF33FF",
"9	g #9900CC",
"0	g #FF33CC",
"a	g #339933",
"b	g #336633",
"c	g #006633",
"d	g #993366",
"e	g #CC00CC",
"f	g #CC0099",
"                                                ",
"      .+@@#@#@@#@#@@#@#@++++++++++++++++++.     ",
"    +++++++++++++++++@$@+@++@+@++@+@++@+@++++   ",
"   +++@+@@+@@+@@+@@+@+@+@++@+@++@+@++@+@++@+++  ",
"  ++@++@+@+@+@+@+@+@+@+@+@@+@+@@+@+@@+@+@@+@+++ ",
"  ++@+@+@@@@@@@@@@@@@@@@@+@@@@+@@@@+@@@@@+@+@++ ",
" ++@+@+@@+@@@+@@@+@@@@@@@@@@@@@@@@@@@@+@@+@+@+++",
" +@+@+@@@@@@@@@@@@@@@@@@@@@@@@@@@@@@@@@@@@@+@+@+",
" +++@@@+@@@@@@@@@@@@@@@@@@@@@@@@@@@@@@@@@@@@+@++",
" +@+@+@@@@@@@%@@%@@@@&@&@&&@&@#&@&@@@@@@@@+@+@++",
" ++@+@@@@###@*@&&&=-;=;-;&&&&&&&&&&&&&&+&@>@@+@+",
" ++@+.$,')',@&&;=!~{]^/~/======&=&&&&&&&&&&&+@++",
" +@+#,(_:<[.&&-==]{{}}|}}}}1{{{{{{]^~!====&&&+@+",
" ++$$,)22:+&&&===^]}}}3334|5|}}1}{{{{]{]====&@++",
" +@$$,)):2&&&&===]~64}}|7}|}}}}6{{]{]^=!/====+++",
" ++$,,))2:+&&&====]{37}}48|}|61{}{{]{~]~=====+@+",
" +@$$,)):2&&&;-==={{84}}}|}}}16{{]{]^=/====]=+++",
" ++$,,))2:.&&&====]9|8|}6}|}6161]{]{~]===]]==+@+",
" +@$,,,)):.&&&==;={{070|}{}}16{{{]{=/==={]{==+++",
" ++$,,,)a2.&&&-;-=~{545}}}{}61]{]^~/~==]{{]~-$@+",
" +@$,,,,)2b&&;-&==/]|}|}}{{{}6{]{]!]=={{}]{==+++",
" ++$,,$))2b=&-;&-=~{}8}}}}}{]}{]{=]=={]}{{]=-$@+",
" +@*),$,)2b=&&&&;=/{}|}}}{{]{]1{]==/]1}}{]{==+++",
" ++@),$,)2b=&&&&-==]}}}}{}{{{]{]{=]~6}}}6{]=-$@+",
" ++&,,$,)a,==&+&;=={}}|}6{]{]=/]{]{{}3}}{{]=;@++",
" +@+,,$,)_(==&&&&==~6}}1}1{{/{~=]]}}3}}}{]{=&#++",
" ++@$,,,,2c;-.+&&=={{}}6{]{]d/==]{}}3}|{{]{==+@+",
" +++.,,,))'-;&@&&===}}}1}{]{/~==]{]}|}}}{{]=&$++",
" +@+$$,,,))&-&&&&==/{}6{9{]]!/~{6e{{}}}}{]!=-@++",
" +@+.$,,))a&&&&&&-=~{}1}{{]d]=]{f{}]{{{}{{]=;$@+",
" ++@+$,,,))&&&&&&==={}9{]]{/=]{9}{]{]{{{{]!=-@++",
" ++@+$,,)))>&&;&&;==]}6f{{=]]{f{{f6]{]={{{]=&#++",
" +@+@+$,)))@&&-&&-=={1{9{]{]{]6]}]{]{]^={]!=&#++",
" ++@+@#$,))#+&&=&;==]9}]{]~^]{}{]{]{]d]!=!]=.+@+",
" ++@+@@@$,)#@&&&-&=={{]{]{/]1]]{]{]]^]=]=&!=&#++",
" ++@+@@@&@,#+&&&=&===}]{]~]19{6{]{]d]!]===&=.@++",
" +@+@@@@@@%@@+&&=&==]{]{/{{]{f]]{]/{=]=====&&#++",
" +++@+@@@%@@%@&&=&==={]]]{f6]{]{]d/~/=~===-&>>@+",
" +@+@@@@@@@%@@#@&=;-~]]!]6]{]{]/d/====&-&.&>&@++",
" +++@+@@@@@@@%@@>&-==]^f{]]{====&&&&@@@@#@#@+@++",
" +@+@@@@@@@@%@@@&&&&=====;&&&&>@@&@@@@@@@+@+@+@+",
" ++@++@+@@@@@@@@@@@&&&&&@&@@@@@@@@@@@@@@@@@@+@++",
" +++@@+@@@@@@@@@@@@@@@@@@@@@@@@@@@@@@@@@+@+@++++",
"  +@+@+@+@+@@@@@@@@+@@+@+@@+@@@@+@@@+@@+@@+@+@+ ",
"  ++++@+@+@++@++@+@+@+@+@+@+@++@@++@+@+@+@+@+++ ",
"   +++@+@+@+@+@+@++@++@+@+@+@+@+++@+@+@+@+@+++  ",
"    ++++@+@++@++@+@+@++@+++@++@+@+@++@++@++++   ",
"      +++++++++++++++++++++++++++++++++++++     "};
