/* XPM */
static char * crack_attack_extremeicon_xpm[] = {
"48 48 81 1",
" 	g None",
".	g #333333",
"+	g #000000",
"@	g #666666",
"#	g #663366",
"$	g #336633",
"%	g #003300",
"&	g #006600",
"*	g #00CC00",
"=	g #660033",
"-	g #660099",
";	g #CC33CC",
">	g #CC66CC",
",	g #993399",
"'	g #990099",
")	g #660066",
"!	g #330033",
"~	g #009900",
"{	g #339933",
"]	g #663399",
"^	g #CC3399",
"/	g #9933CC",
"(	g #993366",
"_	g #330066",
":	g #9900CC",
"<	g #000033",
"[	g #003333",
"}	g #990066",
"|	g #330000",
"1	g #000066",
"2	g #660000",
"3	g #003399",
"4	g #990000",
"5	g #993333",
"6	g #330099",
"7	g #663300",
"8	g #993300",
"9	g #CC0033",
"0	g #CC3333",
"a	g #CC0000",
"b	g #FF6633",
"c	g #CC3366",
"d	g #FF3333",
"e	g #CC6633",
"f	g #CC6666",
"g	g #FF3300",
"h	g #FF6666",
"i	g #CC9999",
"j	g #FF6699",
"k	g #FF9999",
"l	g #FFCCCC",
"m	g #FFCC99",
"n	g #CC3300",
"o	g #FF0000",
"p	g #FF9966",
"q	g #663333",
"r	g #336666",
"s	g #999999",
"t	g #9999CC",
"u	g #CCCCCC",
"v	g #CCCCFF",
"w	g #666699",
"x	g #CC99CC",
"y	g #333366",
"z	g #666633",
"A	g #FFFFFF",
"B	g #FFCCFF",
"C	g #CCFFFF",
"D	g #99CCCC",
"E	g #9999FF",
"F	g #99CCFF",
"G	g #CC99FF",
"H	g #6666CC",
"I	g #333300",
"J	g #9966CC",
"K	g #6699CC",
"L	g #333399",
"M	g #6666FF",
"N	g #9966FF",
"O	g #6699FF",
"P	g #669966",
"     .++++++++++++++++++++++++++++++++++++.     ",
"   .++++++++++++++++++++++++++++++++++++++++.   ",
"  ++++++++++++++++++++++++++++++++++++++++++++  ",
" .+++++++++++++++++++++++++++++++++++++++++++++ ",
" ++++++..+...+...+...+.+++++++.+...+...+.+.++++ ",
".++++...@@@.@@@#$@@.@...+++++..@@.@@@.@@@..++++.",
"+++++.@@@@.@$$#@###.#...++++..@@@....@.@@@..++++",
"++++..@@@+%&*.=-;>;;,,'))!++.@@@+++++++.@@..++++",
"+++++..@@@.~~!));;>;,,'))!+++.@@.+++++.@@@.+++++",
"++++++!..@$~{!))>;;;,')]'!++++.@@++++.@@..++++++",
"+++++++++..&~.!);;,,'),^-!++++.@.+++.@..++++++++",
"++++++++++$&~#!);;,,',;/(!++++.@.++@@..+++++++++",
"++++++++++%&{.!_,;,');;;)!+++.@@++.@..++++++++++",
"+++++++++++&~.!=,,''',,,#!++.@@++.@..+++++++++++",
"+++++++++++%~.!_'^',,:',)!+..@.++@@.++++++++++++",
"+++++++++<<<[[!!',',',}))!+|.||||..|++++++++++++",
"++++++<11<1<1<!!-,',-))!!22|2|2222222|++++++++++",
"++++++13_!|!||22=)==22224225254525444|++++++++++",
"++++++16|744444444489800500050800a0a0+++++++++++",
"++++++1_790a00000bcde0f000f0890dd0g0a+++++++++++",
"++++++<120bhhhhhhfhijf000fhh40dg9g9g4+++++++++++",
"++++++<120hjhkkllhllmkf00hhdagddn0g02+++++++++++",
"++++++<1=ahhillllfkkkkha0ddd00o0a9g92+++++++++++",
"+++++++1=8cpllllkhkkkhh0dd0daddn4n9n|+++++++++++",
"+++++++<!4dlllklkfkhhb0ddn0g9nad472|++++++++++++",
"+++++++<|4fklkkkp0hhddd0dda02qq.++++++++++++++++",
"++++++++|20mkkkf0ddddd0an422|.@.!+++++++++++++++",
"+++++++++45jkkhd00dd0042|+++++.@.%++++++++++++++",
"+++++++++24fhhbdda572+.r.++++++@@!++++++++++++++",
"+++++++++|8ag005q@.++r@@@@+++++.@..+++++++++++++",
"++++++s@++242|+[@.++.@.s@@.+++++.@.+++++++++++++",
"++++tuvu.++wstuusstuuxuvu@@.+++ys@zy+++.sut@++++",
"++++uvvvs++uvAvvvBCBvDvvBt$#+.tuvwuu@@<.vvAu.+++",
"++++tvvvv@+uvvvvvvvvDsvvvvw@.tvvvuvEsv@<uvvvy+++",
"+++++tvvvt<tvvttuFvGs+tvvvtzwuvvtEvvvt++tvvt.+++",
"++++.EttvEwwtEt+wtFw+.EttvEwsEEwwtvEEHI+tEEt++++",
"++++wEEtEEtzHEt+zJEt+yEEtEEtKEw++HEEFttLwEE@++++",
"++++wEEEEEE@wEty@tEH+wEEEEEEEEJw+wEtJEEwytt<++++",
"++++HMEwMEMywEM@zHEMIHMEwHMNHOEH[]EM.HEw.wH.++++",
"++++wMMwHML+yHMy@wHM<wHMLHOw.JMMyyMy+<y.@HMH++++",
"++++I@Hwyw++++Ly@@.wy+ywLy].@wwHy+y+++++.HMH++++",
"++++.z@@......Iz@@.+++++++%.@P..........@wwyI+++",
".+++<.@@@@@@@@@@@..I++++++!.$#@@@@@@@@@@@z..+++.",
" ++++<I...........<+++++++++...............++++ ",
" .+++++++++++++++++++++++++++++++++++++++++++++ ",
"  ++++++++++++++++++++++++++++++++++++++++++++  ",
"   ++++++++++++++++++++++++++++++++++++++++++   ",
"     .++++++++++++++++++++++++++++++++++++.     "};
